<svg t="1742295816466" class="icon" viewBox="0 0 1144 1024" version="1.1" xmlns="http://www.w3.org/2000/svg" p-id="2738" width="200" height="200"><path d="M1056.286118 353.972706l19.817411-20.058353 41.833412 42.375529 25.298824-28.973176-129.867294-135.981177-40.688942-1.084235-68.21647-68.065882-57.22353 59.060706-181.609411-169.441883s-135.378824-88.094118-275.124706 28.973177c-139.745882 117.067294-59.361882 261.993412-59.361883 261.993412l114.447059 132.638117 70.445177-64.63247-85.835294-101.406118s-59.422118-83.606588 17.588705-156.069647c77.040941-72.463059 159.563294-33.460706 159.563295-33.460706l168.357647 169.441882-58.277647 56.892236 183.808 189.530353 4.427294-1.084236 26.383059-31.232 84.751058 88.094118L1144.470588 439.898353l-88.18447-85.925647zM542.087529 417.430588l65.355295 66.198588-66.921412 67.764706-65.355294-66.16847L542.117647 417.430588z m84.239059 218.654118l-65.355294-66.168471 66.921412-67.764706 65.355294 66.168471-66.921412 67.764706z m99.809883-34.635294l-67.072 64.662588 55.115294 68.517647s59.452235 83.606588-17.558589 156.069647c-77.040941 72.463059-159.563294 33.460706-159.563294 33.460706l-168.357647-169.441882 58.277647-56.892236-183.808-189.44-4.367058 1.084236-26.383059 31.232-84.751059-88.033883L0 584.161882l88.033882 85.835294-19.787294 20.088471-41.863529-42.375529-25.298824 28.973176 129.867294 135.981177 40.688942 1.084235 68.246588 68.065882 57.223529-59.060706 181.579294 169.441883s135.378824 88.094118 275.124706-28.973177c139.745882-117.067294 59.452235-261.993412 59.452236-261.993412l-87.130353-99.749647z" p-id="2739"></path></svg>