<svg t="1742295446507" class="icon" viewBox="0 0 1024 1024" version="1.1" xmlns="http://www.w3.org/2000/svg" p-id="1195" width="200" height="200"><path d="M512 0c282.770286 0 512 229.229714 512 512s-229.229714 512-512 512S0 794.770286 0 512 229.229714 0 512 0z m0 56.880762C260.632381 56.880762 56.880762 260.656762 56.880762 512c0 251.367619 203.776 455.119238 455.119238 455.119238 251.367619 0 455.119238-203.776 455.119238-455.119238 0-251.367619-203.776-455.119238-455.119238-455.119238z" p-id="1196" fill="#707070"></path><path d="M512 195.047619c282.770286 0 512 141.897143 512 316.952381s-229.229714 316.952381-512 316.952381S0 687.055238 0 512 229.229714 195.047619 512 195.047619z m0 57.636571c-255.390476 0-455.119238 123.611429-455.119238 259.31581 0 135.68 199.728762 259.31581 455.119238 259.31581 255.390476 0 455.119238-123.611429 455.119238-259.31581 0-135.68-199.728762-259.31581-455.119238-259.31581z" p-id="1197" fill="#707070"></path><path d="M828.952381 512c0 282.770286-141.897143 512-316.952381 512S195.047619 794.770286 195.047619 512 336.944762 0 512 0s316.952381 229.229714 316.952381 512z m-57.636571 0c0-255.390476-123.611429-455.119238-259.31581-455.119238-135.68 0-259.31581 199.728762-259.31581 455.119238 0 255.390476 123.611429 455.119238 259.31581 455.119238 135.68 0 259.31581-199.728762 259.31581-455.119238z" p-id="1198" fill="#707070"></path><path d="M487.619048 316.952381v390.095238h-52.248381V428.397714l-62.683429 50.176L341.333333 433.980952zM536.380952 707.047619V316.952381h52.248381v278.649905l62.683429-50.176L682.666667 590.019048z" p-id="1199" fill="#707070"></path></svg>