<svg t="1742295601593" class="icon" viewBox="0 0 1433 1024" version="1.1" xmlns="http://www.w3.org/2000/svg" p-id="2568" width="200" height="200"><path d="M1196.613592 0.005118c2.388587 0 4.674805 0.853067 6.483306 2.320342l227.120454 179.246355a9.827327 9.827327 0 0 1 0 13.990293v1.706133l-227.086331 179.246355a10.748639 10.748639 0 0 1-14.46801-1.433151 9.827327 9.827327 0 0 1-2.081482-6.415061V255.583874H1044.835981c-139.902924 4.674805-250.835705 117.893805-250.835705 256.02235 0 138.094422 110.932782 251.347545 250.801583 256.022351h141.77967v-113.389614c0-5.459626 4.504192-9.895573 10.032063-9.895572a12.215914 12.215914 0 0 1 6.483306 2.047359l227.120454 179.485215a9.827327 9.827327 0 0 1 0 13.990292v1.467275l-227.086331 179.519337a10.134431 10.134431 0 0 1-10.88513 1.364906 9.895573 9.895573 0 0 1-5.664362-9.213119v-113.08251H1044.835981a394.492122 394.492122 0 0 1-318.364458-175.117513l10.270922-15.901161c-68.927782 115.334605-192.793053 187.060446-327.372841 190.984552l-162.799232 0.034122v113.08251a10.680394 10.680394 0 0 1-2.388586 6.995146 10.066186 10.066186 0 0 1-14.160906 1.433152L2.934549 841.33353v-1.433152a9.827327 9.827327 0 0 1 0-13.990293l227.086331-179.519337a12.215914 12.215914 0 0 1 5.323136-2.047359c5.561994 0 10.032063 4.435946 10.032063 9.895572v113.389614h141.472566c94.792761 3.139285 183.750547-44.939549 232.102363-125.469037a253.258415 253.258415 0 0 0 0-261.14075 260.151193 260.151193 0 0 0-213.266652-125.400791L246.604495 255.583874v113.08251a10.134431 10.134431 0 0 1-2.388587 6.415061 10.066186 10.066186 0 0 1-14.160905 1.433151L2.934549 197.302363V195.527985a9.827327 9.827327 0 0 1 1.467275-13.990292L230.02088 2.32546A10.407413 10.407413 0 0 1 235.344016 0.005118c5.561994 0 10.032063 4.435946 10.032063 9.895573v113.389614h141.472566c136.831884-3.71937 265.269592 62.956316 339.861737 175.117513a393.707301 393.707301 0 0 1 318.125599-175.117513h141.745548V9.900691c0-2.627445 1.057803-5.1184 2.934549-6.995146A10.100309 10.100309 0 0 1 1196.613592 0.005118z" p-id="2569"></path></svg>