<svg t="1742295869401" class="icon" viewBox="0 0 1024 1024" version="1.1" xmlns="http://www.w3.org/2000/svg" p-id="2910" width="200" height="200"><path d="M905.557333 705.877333a119.786667 119.786667 0 0 0 32.512-83.114666l0.597334 0.213333V498.986667a119.765333 119.765333 0 0 0-32.597334-82.986667 108.672 108.672 0 0 0-79.061333-34.197333h-176.064V151.616H584.746667v232.256h-144.938667V149.333333l-139.242667 171.52h70.314667v60.757334H197.205333a108.650667 108.650667 0 0 0-79.210666 34.133333 119.765333 119.765333 0 0 0-32.64 83.029333v123.989334a119.765333 119.765333 0 0 0 32.576 83.2 108.672 108.672 0 0 0 79.274666 34.176h128.213334v-80.384h-128.213334c-18.88-1.066667-33.792-17.173333-34.282666-36.992V498.773333c0.64-20.16 16.042667-36.352 35.264-36.992h630.186666c19.2 0.64 34.645333 16.853333 35.264 36.992v123.989334c-0.512 20.202667-16 36.458667-35.264 36.992h-51.797333l-51.584 80.384h101.418667a108.693333 108.693333 0 0 0 79.146666-34.261334z m-464.149333 149.333334h-70.506667V509.930667h70.506667V855.253333z m142.186667 19.434666V509.909333h66.154666v147.562667h70.506667l-136.661333 217.173333z m-45.290667-134.506666h-52.010667l0.597334-80.384h51.413333v80.384z" p-id="2911"></path></svg>